<?xml version="1.0" encoding="UTF-8"?>
<!-- Pengu Deck mark without background, for the header bar -->
<svg xmlns="http://www.w3.org/2000/svg" width="64" height="64" viewBox="64 64 384 384">
  <path d="M164 262 C110 300 96 356 118 386 L182 350 Z" fill="#101218" stroke="#050608" stroke-width="10" stroke-linejoin="round"/>
  <path d="M348 262 C402 300 416 356 394 386 L330 350 Z" fill="#101218" stroke="#050608" stroke-width="10" stroke-linejoin="round"/>
  <path d="M256 92 C332 92 366 158 366 236 L366 352 L146 352 L146 236 C146 158 180 92 256 92 Z" fill="#141720" stroke="#050608" stroke-width="10" stroke-linejoin="round"/>
  <path d="M256 208 C312 208 336 254 336 302 L336 352 L176 352 L176 302 C176 254 200 208 256 208 Z" fill="#ffffff"/>
  <ellipse cx="228" cy="176" rx="26" ry="30" fill="#ffffff"/>
  <ellipse cx="284" cy="176" rx="26" ry="30" fill="#ffffff"/>
  <ellipse cx="236" cy="184" rx="11" ry="14" fill="#050608"/>
  <ellipse cx="276" cy="184" rx="11" ry="14" fill="#050608"/>
  <circle cx="239" cy="179" r="3.5" fill="#ffffff"/>
  <circle cx="279" cy="179" r="3.5" fill="#ffffff"/>
  <path d="M222 208 L290 208 L256 240 Z" fill="#f59e0b" stroke="#050608" stroke-width="8" stroke-linejoin="round"/>
  <path d="M176 176 C176 116 216 84 256 84 C296 84 336 116 336 176" fill="none" stroke="#050608" stroke-width="26" stroke-linecap="round"/>
  <path d="M176 176 C176 116 216 84 256 84 C296 84 336 116 336 176" fill="none" stroke="#9aa3b2" stroke-width="14" stroke-linecap="round"/>
  <rect x="150" y="166" width="38" height="66" rx="14" fill="#9aa3b2" stroke="#050608" stroke-width="8"/>
  <rect x="324" y="166" width="38" height="66" rx="14" fill="#9aa3b2" stroke="#050608" stroke-width="8"/>
  <path d="M112 352 L400 352 L432 424 L80 424 Z" fill="#161a22" stroke="#050608" stroke-width="10" stroke-linejoin="round"/>
  <ellipse cx="160" cy="390" rx="46" ry="22" fill="#0b0d11" stroke="#9aa3b2" stroke-width="7"/>
  <ellipse cx="160" cy="390" rx="14" ry="7" fill="#f59e0b"/>
  <ellipse cx="352" cy="390" rx="46" ry="22" fill="#0b0d11" stroke="#9aa3b2" stroke-width="7"/>
  <ellipse cx="352" cy="390" rx="14" ry="7" fill="#f59e0b"/>
  <rect x="232" y="364" width="6" height="40" rx="3" fill="#9aa3b2"/>
  <rect x="253" y="364" width="6" height="40" rx="3" fill="#9aa3b2"/>
  <rect x="274" y="364" width="6" height="40" rx="3" fill="#9aa3b2"/>
  <rect x="226" y="386" width="18" height="8" rx="3" fill="#e5e9f0"/>
  <rect x="247" y="372" width="18" height="8" rx="3" fill="#e5e9f0"/>
  <rect x="268" y="380" width="18" height="8" rx="3" fill="#e5e9f0"/>
  <rect x="222" y="410" width="18" height="7" rx="2" fill="#f59e0b"/>
  <rect x="247" y="410" width="18" height="7" rx="2" fill="#f59e0b"/>
  <rect x="272" y="410" width="18" height="7" rx="2" fill="#f59e0b"/>
</svg>
